<?xml version="1.0" standalone="no"?>
<!DOCTYPE svg PUBLIC "-//W3C//DTD SVG 20010904//EN"
 "http://www.w3.org/TR/2001/REC-SVG-20010904/DTD/svg10.dtd">
<svg version="1.0" xmlns="http://www.w3.org/2000/svg"
 width="160.000000pt" height="160.000000pt" viewBox="0 0 160.000000 160.000000"
 preserveAspectRatio="xMidYMid meet">
<metadata>
Created by potrace 1.14, written by Peter Selinger 2001-2017
</metadata>
<g transform="translate(0.000000,160.000000) scale(0.100000,-0.100000)"
fill="#000000" stroke="none">
<path d="M715 1480 c-136 -15 -309 -110 -382 -208 -16 -20 -34 -44 -42 -52
-23 -24 -80 -150 -96 -213 -20 -76 -19 -221 1 -294 9 -32 20 -78 24 -102 5
-32 16 -51 39 -70 49 -40 37 -44 -29 -10 -57 30 -61 30 -85 15 -14 -9 -25 -20
-25 -24 0 -10 38 -45 65 -60 18 -10 17 -11 -11 -12 -35 0 -57 -20 -52 -46 3
-20 53 -52 83 -54 15 -1 12 -4 -13 -15 -57 -25 -34 -83 33 -85 17 0 75 -16
130 -34 115 -38 136 -36 197 21 l36 35 64 -16 c82 -20 224 -21 304 0 l63 15
35 -35 c48 -48 90 -54 171 -27 35 12 94 28 131 36 37 8 74 20 82 28 20 21 6
56 -25 63 -24 6 -22 8 21 27 43 18 47 23 44 51 -3 29 -5 31 -45 30 -23 0 -40
3 -37 8 3 4 10 8 16 8 21 0 68 42 68 61 0 11 -11 24 -24 30 -21 10 -32 7 -72
-15 -26 -14 -49 -24 -52 -21 -3 3 9 20 26 38 20 20 32 43 32 59 0 15 5 39 11
55 6 15 17 66 25 113 30 196 -46 401 -204 546 -132 122 -312 177 -507 154z"/>
</g>
</svg>
